<?xml version="1.0" encoding="UTF-8" standalone="no"?>
<!DOCTYPE svg PUBLIC "-//W3C//DTD SVG 1.1//EN" "http://www.w3.org/Graphics/SVG/1.1/DTD/svg11.dtd">
<svg version="1.1" xmlns="http://www.w3.org/2000/svg" xmlns:xlink="http://www.w3.org/1999/xlink" preserveAspectRatio="xMidYMid meet" viewBox="51.2014142335767 23.749963788949117 64.88934780604914 79.83397781689047" width="59.89" height="74.83"><defs><path d="M108.32 25.75C110.96 25.75 113.09 27.88 113.09 30.52C113.09 42.86 113.09 75.12 113.09 87.46C113.09 90.1 110.96 92.23 108.32 92.23C99.04 92.23 75.97 92.23 66.69 92.23C64.06 92.23 61.93 90.1 61.93 87.46C61.93 75.12 61.93 42.86 61.93 30.52C61.93 27.88 64.06 25.75 66.69 25.75C75.97 25.75 99.04 25.75 108.32 25.75Z" id="j3UOywHg34"></path><path d="M99.99 34.12L100.18 34.14L100.37 34.17L100.56 34.2L100.74 34.24L100.93 34.29L101.11 34.35L101.28 34.41L101.45 34.48L101.62 34.55L101.79 34.64L101.95 34.72L102.11 34.82L102.26 34.92L102.41 35.02L102.56 35.13L102.7 35.25L102.84 35.37L102.97 35.5L103.1 35.63L103.22 35.77L103.34 35.91L103.45 36.06L103.55 36.21L103.65 36.36L103.75 36.52L103.83 36.68L103.92 36.85L103.99 37.02L104.06 37.19L104.12 37.36L104.18 37.54L104.23 37.73L104.27 37.91L104.3 38.1L104.33 38.29L104.35 38.48L104.36 38.68L104.37 38.87L104.37 95.82L104.36 96.01L104.35 96.21L104.33 96.4L104.3 96.59L104.27 96.78L104.23 96.96L104.18 97.14L104.12 97.32L104.06 97.5L103.99 97.67L103.92 97.84L103.83 98.01L103.75 98.17L103.65 98.33L103.55 98.48L103.45 98.63L103.34 98.78L103.22 98.92L103.1 99.06L102.97 99.19L102.84 99.31L102.7 99.44L102.56 99.55L102.41 99.66L102.26 99.77L102.11 99.87L101.95 99.96L101.79 100.05L101.62 100.13L101.45 100.21L101.28 100.28L101.11 100.34L100.93 100.4L100.74 100.45L100.56 100.49L100.37 100.52L100.18 100.55L99.99 100.57L99.8 100.58L99.6 100.58L57.97 100.58L57.77 100.58L57.58 100.57L57.39 100.55L57.2 100.52L57.01 100.49L56.82 100.45L56.64 100.4L56.46 100.34L56.29 100.28L56.11 100.21L55.94 100.13L55.78 100.05L55.62 99.96L55.46 99.87L55.3 99.77L55.15 99.66L55.01 99.55L54.87 99.44L54.73 99.31L54.6 99.19L54.47 99.06L54.35 98.92L54.23 98.78L54.12 98.63L54.02 98.48L53.92 98.33L53.82 98.17L53.73 98.01L53.65 97.84L53.58 97.67L53.51 97.5L53.44 97.32L53.39 97.14L53.34 96.96L53.3 96.78L53.26 96.59L53.24 96.4L53.22 96.21L53.21 96.01L53.2 95.82L53.2 38.87L53.21 38.68L53.22 38.48L53.24 38.29L53.26 38.1L53.3 37.91L53.34 37.73L53.39 37.54L53.44 37.36L53.51 37.19L53.58 37.02L53.65 36.85L53.73 36.68L53.82 36.52L53.92 36.36L54.02 36.21L54.12 36.06L54.23 35.91L54.35 35.77L54.47 35.63L54.6 35.5L54.73 35.37L54.87 35.25L55.01 35.13L55.15 35.02L55.3 34.92L55.46 34.82L55.62 34.72L55.78 34.64L55.94 34.55L56.11 34.48L56.29 34.41L56.46 34.35L56.64 34.29L56.82 34.24L57.01 34.2L57.2 34.17L57.39 34.14L57.58 34.12L57.77 34.11L57.97 34.1L99.6 34.1L99.8 34.11L99.99 34.12ZM63.17 42.32L62.99 42.34L62.82 42.36L62.65 42.39L62.48 42.42L62.32 42.47L62.16 42.52L62 42.58L61.85 42.65L61.7 42.72L61.56 42.8L61.42 42.89L61.28 42.98L61.15 43.08L61.02 43.19L60.9 43.3L60.78 43.41L60.67 43.53L60.57 43.66L60.47 43.79L60.37 43.93L60.29 44.07L60.21 44.22L60.13 44.36L60.07 44.52L60.01 44.67L59.95 44.83L59.91 45L59.87 45.16L59.84 45.33L59.82 45.5L59.81 45.68L59.8 45.86L59.8 88.1L59.81 88.28L59.82 88.45L59.84 88.62L59.87 88.79L59.91 88.96L59.95 89.12L60.01 89.28L60.07 89.44L60.13 89.59L60.21 89.74L60.29 89.89L60.37 90.03L60.47 90.16L60.57 90.3L60.67 90.42L60.78 90.54L60.9 90.66L61.02 90.77L61.15 90.88L61.28 90.98L61.42 91.07L61.56 91.16L61.7 91.24L61.85 91.31L62 91.38L62.16 91.44L62.32 91.49L62.48 91.53L62.65 91.57L62.82 91.6L62.99 91.62L63.17 91.63L63.34 91.64L94.23 91.64L94.4 91.63L94.58 91.62L94.75 91.6L94.92 91.57L95.08 91.53L95.25 91.49L95.41 91.44L95.56 91.38L95.72 91.31L95.87 91.24L96.01 91.16L96.15 91.07L96.29 90.98L96.42 90.88L96.55 90.77L96.67 90.66L96.79 90.54L96.9 90.42L97 90.3L97.1 90.16L97.19 90.03L97.28 89.89L97.36 89.74L97.43 89.59L97.5 89.44L97.56 89.28L97.61 89.12L97.66 88.96L97.7 88.79L97.73 88.62L97.75 88.45L97.76 88.28L97.76 88.1L97.76 45.86L97.76 45.68L97.75 45.5L97.73 45.33L97.7 45.16L97.66 45L97.61 44.83L97.56 44.67L97.5 44.52L97.43 44.36L97.36 44.22L97.28 44.07L97.19 43.93L97.1 43.79L97 43.66L96.9 43.53L96.79 43.41L96.67 43.3L96.55 43.19L96.42 43.08L96.29 42.98L96.15 42.89L96.01 42.8L95.87 42.72L95.72 42.65L95.56 42.58L95.41 42.52L95.25 42.47L95.08 42.42L94.92 42.39L94.75 42.36L94.58 42.34L94.4 42.32L94.23 42.32L63.34 42.32L63.17 42.32Z" id="b300dK7GOr"></path><path d="M92.52 42.46C95.15 42.46 97.28 44.59 97.28 47.23C97.28 56.23 97.28 78.46 97.28 87.46C97.28 90.1 95.15 92.23 92.52 92.23C86.07 92.23 71.5 92.23 65.05 92.23C62.42 92.23 60.28 90.1 60.28 87.46C60.28 78.46 60.28 56.23 60.28 47.23C60.28 44.59 62.42 42.46 65.05 42.46C71.5 42.46 86.07 42.46 92.52 42.46Z" id="k3wxxAYbw"></path><path d="M80.2 55.08L80.68 55.15L81.15 55.23L81.62 55.33L82.08 55.45L82.53 55.59L82.98 55.75L83.43 55.92L83.86 56.11L84.29 56.31L84.71 56.53L85.12 56.77L85.52 57.02L85.91 57.29L86.29 57.57L86.67 57.87L87.03 58.18L87.37 58.5L87.71 58.84L88.03 59.2L88.34 59.56L88.64 59.94L88.92 60.33L89.19 60.74L89.44 61.16L89.68 61.59L89.9 62.03L90.11 62.48L90.29 62.95L90.46 63.42L90.61 63.91L90.75 64.4L90.86 64.89L90.95 65.38L91.02 65.87L91.07 66.37L91.07 66.39L88.58 66.33L88.56 66.17L88.51 65.77L88.44 65.38L88.35 64.99L88.24 64.59L88.12 64.21L87.99 63.83L87.84 63.45L87.67 63.09L87.5 62.74L87.31 62.4L87.1 62.06L86.89 61.74L86.66 61.42L86.43 61.12L86.18 60.82L85.92 60.54L85.65 60.27L85.37 60.01L85.08 59.76L84.79 59.52L84.48 59.3L84.17 59.08L83.85 58.88L83.52 58.69L83.18 58.52L82.84 58.35L82.49 58.2L82.14 58.07L81.78 57.94L81.41 57.83L81.05 57.73L80.67 57.65L80.29 57.59L79.91 57.53L79.53 57.5L79.14 57.47L78.76 57.46L78.36 57.47L77.97 57.5L77.58 57.54L77.19 57.59L76.79 57.66L76.4 57.75L76.01 57.86L75.62 57.98L75.24 58.11L74.87 58.26L74.5 58.43L74.15 58.6L73.81 58.79L73.47 58.99L73.15 59.21L72.84 59.44L72.53 59.67L72.24 59.92L71.96 60.18L71.68 60.45L71.42 60.73L71.17 61.02L70.94 61.31L70.71 61.62L70.5 61.93L70.3 62.25L70.1 62.58L69.93 62.92L69.76 63.26L69.61 63.61L69.48 63.96L69.35 64.32L69.33 64.4L88.39 69.82L90.84 69.88L90.77 70.21L90.65 70.67L90.51 71.12L90.35 71.57L90.18 72.01L89.99 72.45L89.79 72.88L89.57 73.3L89.33 73.71L89.08 74.11L88.81 74.5L88.53 74.88L88.23 75.25L87.92 75.61L87.6 75.96L87.26 76.3L86.9 76.62L86.54 76.93L86.16 77.23L85.76 77.51L85.36 77.78L84.94 78.03L84.51 78.27L84.07 78.49L83.62 78.69L83.15 78.88L82.68 79.05L82.19 79.2L81.7 79.33L81.21 79.44L80.72 79.53L80.23 79.6L79.73 79.65L79.24 79.68L78.76 79.69L78.27 79.68L77.79 79.65L77.31 79.61L76.83 79.54L76.36 79.46L75.89 79.35L75.43 79.23L74.98 79.1L74.53 78.94L74.09 78.77L73.65 78.58L73.22 78.38L72.8 78.16L72.39 77.92L71.99 77.67L71.6 77.4L71.22 77.12L70.85 76.82L70.49 76.51L70.14 76.18L69.8 75.84L69.48 75.49L69.17 75.12L68.87 74.74L68.59 74.35L68.32 73.95L68.07 73.53L67.83 73.1L67.61 72.66L67.41 72.2L67.22 71.74L67.05 71.27L66.9 70.78L66.77 70.29L66.66 69.8L66.57 69.33L69.09 69.39L69.17 69.7L69.27 70.09L69.39 70.48L69.53 70.86L69.68 71.23L69.84 71.6L70.02 71.95L70.21 72.29L70.41 72.63L70.62 72.95L70.85 73.26L71.09 73.57L71.33 73.86L71.59 74.14L71.86 74.41L72.14 74.68L72.43 74.92L72.72 75.16L73.03 75.39L73.34 75.6L73.67 75.8L73.99 75.99L74.33 76.17L74.67 76.33L75.02 76.48L75.37 76.62L75.73 76.75L76.1 76.86L76.47 76.95L76.84 77.03L77.22 77.1L77.6 77.15L77.98 77.19L78.37 77.21L78.76 77.22L79.15 77.21L79.54 77.19L79.93 77.15L80.32 77.1L80.72 77.02L81.11 76.93L81.51 76.83L81.89 76.71L82.27 76.57L82.65 76.42L83.01 76.26L83.36 76.08L83.7 75.89L84.04 75.69L84.36 75.48L84.68 75.25L84.98 75.01L85.27 74.77L85.56 74.51L85.83 74.24L86.09 73.96L86.34 73.67L86.58 73.37L86.8 73.07L87.02 72.76L87.22 72.43L87.41 72.11L87.58 71.77L87.75 71.43L87.75 71.41L68.29 65.88L66.5 65.84L66.56 65.42L66.64 64.95L66.75 64.48L66.87 64.02L67 63.56L67.16 63.12L67.33 62.67L67.52 62.24L67.72 61.81L67.94 61.39L68.18 60.98L68.43 60.58L68.7 60.18L68.98 59.8L69.28 59.43L69.59 59.07L69.92 58.72L70.25 58.39L70.61 58.07L70.98 57.75L71.36 57.46L71.75 57.18L72.15 56.91L72.57 56.66L73 56.42L73.44 56.2L73.89 55.99L74.36 55.81L74.83 55.64L75.32 55.49L75.81 55.35L76.3 55.24L76.79 55.15L77.29 55.08L77.78 55.03L78.27 55L78.76 55L79.24 55L79.72 55.03L80.2 55.08Z" id="aJbzctp24"></path><linearGradient id="gradientcWVMncJk" gradientUnits="userSpaceOnUse" x1="69.93" y1="60.38" x2="89" y2="75.84"><stop style="stop-color: #21a3ff;stop-opacity: 1" offset="0%"></stop><stop style="stop-color: #0f0c0c;stop-opacity: 1" offset="100%"></stop></linearGradient></defs><g><g><use xlink:href="#j3UOywHg34" opacity="1" fill="#43a4e6" fill-opacity="1"></use><g><use xlink:href="#j3UOywHg34" opacity="1" fill-opacity="0" stroke="#15202b" stroke-width="4" stroke-opacity="1"></use></g></g><g><use xlink:href="#b300dK7GOr" opacity="1" fill="#43a4e6" fill-opacity="1"></use><g><use xlink:href="#b300dK7GOr" opacity="1" fill-opacity="0" stroke="#15202b" stroke-width="4" stroke-opacity="1"></use></g></g><g><use xlink:href="#k3wxxAYbw" opacity="1" fill="#87c5ef" fill-opacity="1"></use><g><use xlink:href="#k3wxxAYbw" opacity="1" fill-opacity="0" stroke="#15202b" stroke-width="0" stroke-opacity="1"></use></g></g><g><use xlink:href="#aJbzctp24" opacity="1" fill="url(#gradientcWVMncJk)"></use><g><use xlink:href="#aJbzctp24" opacity="1" fill-opacity="0" stroke="#000000" stroke-width="0" stroke-opacity="0"></use></g></g></g></svg>