<?xml version="1.0" encoding="UTF-8" standalone="no"?>
<!DOCTYPE svg PUBLIC "-//W3C//DTD SVG 1.1//EN" "http://www.w3.org/Graphics/SVG/1.1/DTD/svg11.dtd">
<svg version="1.1" xmlns="http://www.w3.org/2000/svg" xmlns:xlink="http://www.w3.org/1999/xlink" preserveAspectRatio="xMidYMid meet" viewBox="51.2014142335767 23.749963788949117 64.88934780604914 79.83397781689047" width="59.89" height="74.83"><defs><path d="M108.32 25.75C110.96 25.75 113.09 27.88 113.09 30.52C113.09 42.86 113.09 75.12 113.09 87.46C113.09 90.1 110.96 92.23 108.32 92.23C99.04 92.23 75.97 92.23 66.69 92.23C64.06 92.23 61.93 90.1 61.93 87.46C61.93 75.12 61.93 42.86 61.93 30.52C61.93 27.88 64.06 25.75 66.69 25.75C75.97 25.75 99.04 25.75 108.32 25.75Z" id="a2hiG3ojb"></path><path d="M99.99 34.12L100.18 34.14L100.37 34.17L100.56 34.2L100.74 34.24L100.93 34.29L101.11 34.35L101.28 34.41L101.45 34.48L101.62 34.55L101.79 34.64L101.95 34.72L102.11 34.82L102.26 34.92L102.41 35.02L102.56 35.13L102.7 35.25L102.84 35.37L102.97 35.5L103.1 35.63L103.22 35.77L103.34 35.91L103.45 36.06L103.55 36.21L103.65 36.36L103.75 36.52L103.83 36.68L103.92 36.85L103.99 37.02L104.06 37.19L104.12 37.36L104.18 37.54L104.23 37.73L104.27 37.91L104.3 38.1L104.33 38.29L104.35 38.48L104.36 38.68L104.37 38.87L104.37 95.82L104.36 96.01L104.35 96.21L104.33 96.4L104.3 96.59L104.27 96.78L104.23 96.96L104.18 97.14L104.12 97.32L104.06 97.5L103.99 97.67L103.92 97.84L103.83 98.01L103.75 98.17L103.65 98.33L103.55 98.48L103.45 98.63L103.34 98.78L103.22 98.92L103.1 99.06L102.97 99.19L102.84 99.31L102.7 99.44L102.56 99.55L102.41 99.66L102.26 99.77L102.11 99.87L101.95 99.96L101.79 100.05L101.62 100.13L101.45 100.21L101.28 100.28L101.11 100.34L100.93 100.4L100.74 100.45L100.56 100.49L100.37 100.52L100.18 100.55L99.99 100.57L99.8 100.58L99.6 100.58L57.97 100.58L57.77 100.58L57.58 100.57L57.39 100.55L57.2 100.52L57.01 100.49L56.82 100.45L56.64 100.4L56.46 100.34L56.29 100.28L56.11 100.21L55.94 100.13L55.78 100.05L55.62 99.96L55.46 99.87L55.3 99.77L55.15 99.66L55.01 99.55L54.87 99.44L54.73 99.31L54.6 99.19L54.47 99.06L54.35 98.92L54.23 98.78L54.12 98.63L54.02 98.48L53.92 98.33L53.82 98.17L53.73 98.01L53.65 97.84L53.58 97.67L53.51 97.5L53.44 97.32L53.39 97.14L53.34 96.96L53.3 96.78L53.26 96.59L53.24 96.4L53.22 96.21L53.21 96.01L53.2 95.82L53.2 38.87L53.21 38.68L53.22 38.48L53.24 38.29L53.26 38.1L53.3 37.91L53.34 37.73L53.39 37.54L53.44 37.36L53.51 37.19L53.58 37.02L53.65 36.85L53.73 36.68L53.82 36.52L53.92 36.36L54.02 36.21L54.12 36.06L54.23 35.91L54.35 35.77L54.47 35.63L54.6 35.5L54.73 35.37L54.87 35.25L55.01 35.13L55.15 35.02L55.3 34.92L55.46 34.82L55.62 34.72L55.78 34.64L55.94 34.55L56.11 34.48L56.29 34.41L56.46 34.35L56.64 34.29L56.82 34.24L57.01 34.2L57.2 34.17L57.39 34.14L57.58 34.12L57.77 34.11L57.97 34.1L99.6 34.1L99.8 34.11L99.99 34.12ZM63.17 42.32L62.99 42.34L62.82 42.36L62.65 42.39L62.48 42.42L62.32 42.47L62.16 42.52L62 42.58L61.85 42.65L61.7 42.72L61.56 42.8L61.42 42.89L61.28 42.98L61.15 43.08L61.02 43.19L60.9 43.3L60.78 43.41L60.67 43.53L60.57 43.66L60.47 43.79L60.37 43.93L60.29 44.07L60.21 44.22L60.13 44.36L60.07 44.52L60.01 44.67L59.95 44.83L59.91 45L59.87 45.16L59.84 45.33L59.82 45.5L59.81 45.68L59.8 45.86L59.8 88.1L59.81 88.28L59.82 88.45L59.84 88.62L59.87 88.79L59.91 88.96L59.95 89.12L60.01 89.28L60.07 89.44L60.13 89.59L60.21 89.74L60.29 89.89L60.37 90.03L60.47 90.16L60.57 90.3L60.67 90.42L60.78 90.54L60.9 90.66L61.02 90.77L61.15 90.88L61.28 90.98L61.42 91.07L61.56 91.16L61.7 91.24L61.85 91.31L62 91.38L62.16 91.44L62.32 91.49L62.48 91.53L62.65 91.57L62.82 91.6L62.99 91.62L63.17 91.63L63.34 91.64L94.23 91.64L94.4 91.63L94.58 91.62L94.75 91.6L94.92 91.57L95.08 91.53L95.25 91.49L95.41 91.44L95.56 91.38L95.72 91.31L95.87 91.24L96.01 91.16L96.15 91.07L96.29 90.98L96.42 90.88L96.55 90.77L96.67 90.66L96.79 90.54L96.9 90.42L97 90.3L97.1 90.16L97.19 90.03L97.28 89.89L97.36 89.74L97.43 89.59L97.5 89.44L97.56 89.28L97.61 89.12L97.66 88.96L97.7 88.79L97.73 88.62L97.75 88.45L97.76 88.28L97.76 88.1L97.76 45.86L97.76 45.68L97.75 45.5L97.73 45.33L97.7 45.16L97.66 45L97.61 44.83L97.56 44.67L97.5 44.52L97.43 44.36L97.36 44.22L97.28 44.07L97.19 43.93L97.1 43.79L97 43.66L96.9 43.53L96.79 43.41L96.67 43.3L96.55 43.19L96.42 43.08L96.29 42.98L96.15 42.89L96.01 42.8L95.87 42.72L95.72 42.65L95.56 42.58L95.41 42.52L95.25 42.47L95.08 42.42L94.92 42.39L94.75 42.36L94.58 42.34L94.4 42.32L94.23 42.32L63.34 42.32L63.17 42.32Z" id="b2FPTjR6yI"></path><path d="M92.52 42.46C95.15 42.46 97.28 44.59 97.28 47.23C97.28 56.23 97.28 78.46 97.28 87.46C97.28 90.1 95.15 92.23 92.52 92.23C86.07 92.23 71.5 92.23 65.05 92.23C62.42 92.23 60.28 90.1 60.28 87.46C60.28 78.46 60.28 56.23 60.28 47.23C60.28 44.59 62.42 42.46 65.05 42.46C71.5 42.46 86.07 42.46 92.52 42.46Z" id="d1sN3khECn"></path><path d="M80.94 61L72.18 61L72.18 73.04L85.32 73.04L85.32 66.02L87.51 66.02L87.51 75.05L69.99 75.05L69.99 58.99L80.94 58.99L80.94 61ZM80.51 68.23L80.51 68.23L77.97 70.56L73.27 66.25L75.81 63.92L77.97 65.91L83.88 60.5L86.41 62.82L80.51 68.23Z" id="a29aVHdsT1"></path></defs><g><g><use xlink:href="#a2hiG3ojb" opacity="1" fill="#43a4e6" fill-opacity="1"></use><g><use xlink:href="#a2hiG3ojb" opacity="1" fill-opacity="0" stroke="#15202b" stroke-width="4" stroke-opacity="1"></use></g></g><g><use xlink:href="#b2FPTjR6yI" opacity="1" fill="#43a4e6" fill-opacity="1"></use><g><use xlink:href="#b2FPTjR6yI" opacity="1" fill-opacity="0" stroke="#15202b" stroke-width="4" stroke-opacity="1"></use></g></g><g><use xlink:href="#d1sN3khECn" opacity="1" fill="#87c5ef" fill-opacity="1"></use><g><use xlink:href="#d1sN3khECn" opacity="1" fill-opacity="0" stroke="#15202b" stroke-width="0" stroke-opacity="1"></use></g></g><g><use xlink:href="#a29aVHdsT1" opacity="1" fill="#cae5f8" fill-opacity="1"></use><g><use xlink:href="#a29aVHdsT1" opacity="1" fill-opacity="0" stroke="#15202b" stroke-width="0" stroke-opacity="1"></use></g></g></g></svg>